# xmcd
#
# Track frame offsets:
#	150
#	14996
#	28061
#	42243
#	54680
#	67682
#	84845
#	101694
#	117178
#	133110
#	145617
#	158787
#	176282
#	194409
#
# Disc length: 2776 seconds
#
# Revision: 0
# Processed by: cddbd v1.5.2PL0 Copyright (c) Steve Scherf et al.
# Submitted via: EasyCDDAExtractor 11.1.0.1
#
DISCID=b90ad60e
DTITLE=Various Artist - Mr Music Country
DYEAR=2009
DGENRE=country
TTITLE0=Shane Morrison and Clint Williams - What I like about texas
TTITLE1=Dave Gleason - Neon rose
TTITLE2=James Lann - Deep in the heart of this texan
TTITLE3=Audrey Auld-Mezera - Looking for luckenbach
TTITLE4=Bob Cheevers - Luckenbach
TTITLE5=Hank Stone - Texas music
TTITLE6=Johnny Bush and Hohnny Rodriguez - The Rio Grande runs red
TTITLE7=Gaylynn Robinson - The borderline
TTITLE8=Asleep at the Wheel - Hot Texas Christmas day
TTITLE9=Billy Mata and The Texas tradition - Ride on
TTITLE10=Mack and Dyan - No dancing
TTITLE11=Rick Cavender - Coastal troubadour
TTITLE12=Bo Göran Svensson - Long walk back to San Antone
TTITLE13=Asleep at the Wheel - Christmas in Texas
EXTD=
EXTT0=
EXTT1=
EXTT2=
EXTT3=
EXTT4=
EXTT5=
EXTT6=
EXTT7=
EXTT8=
EXTT9=
EXTT10=
EXTT11=
EXTT12=
EXTT13=
PLAYORDER=
